<?xml version="1.0" encoding="UTF-8"?> <svg xmlns="http://www.w3.org/2000/svg" width="15" height="17" viewBox="0 0 15 17" fill="none"><path d="M14.788 4.70363L14.009 3.35092C13.8612 3.09415 13.5326 3.00665 13.2758 3.1544L8.7463 5.7637V0.536492C8.7463 0.239557 8.50669 0 8.2097 0H6.65012C6.35313 0 6.11353 0.239557 6.11353 0.536492V15.5482C6.11353 15.8452 6.35313 16.0847 6.65012 16.0847H8.21113C8.50813 16.0847 8.74773 15.8452 8.74773 15.5482V10.3468L13.2299 12.9877C13.4853 13.1383 13.8138 13.0523 13.9645 12.7969L14.7565 11.4514C14.9071 11.196 14.821 10.8676 14.5671 10.7169L10.0476 8.05455L14.5915 5.43378C14.8483 5.28746 14.9358 4.95897 14.788 4.70363Z" fill="#4CBC89"></path><path d="M4.51523 7.8523L0.292754 5.36492C0.0373677 5.21431 -0.0472832 4.88581 0.103366 4.63048L0.895349 3.28494C1.046 3.02961 1.37456 2.94497 1.62994 3.09559L7.43639 6.5168L9.25422 7.58835C9.6086 7.79779 9.60573 8.30989 9.24848 8.51502L7.42204 9.56506L1.58403 12.9289C1.32721 13.0766 0.998652 12.9891 0.850872 12.7324L0.0718016 11.3797C-0.0759779 11.1229 0.0115419 10.7958 0.268363 10.6481L4.5138 8.19944C4.64723 8.12341 4.64723 7.92976 4.51523 7.8523Z" fill="#213F80"></path></svg> 